<svg xmlns="http://www.w3.org/2000/svg" viewBox="0 0 1024 1024" width="200" height="200">
  <path d="M11.5 872.6h851v50.5h-851z" fill="#E79E2D" />
  <path d="M862.6 874.1h-851L163 726.7h850.9L862.6 874.1z" fill="#F2BE3E" />
  <path d="M862.6 874.1l-0.4 48.7 151.4-147.4 0.4-48.7-151.4 147.4z" fill="#E79E2D" />
  <path d="M317.3 250.3v-29.5h-7.5l-175.1 88.3h46.7l117.1-58.8h18.8z" fill="#F06668" />
  <path d="M430.7 250.3H299.3l-117.8 59.1h138.9l110.3-59.1z" fill="#FFFFFF" />
  <path d="M490.9 216.5l-169.5 92.6v529.7l169.5-109.7V216.5z" fill="#F06668" />
  <path d="M133.1 309.2h188.2v529.7H133.1V309.2z m358.4-92.7l-5.3 0.4-180.1 92.2 15.1-0.1 170.3-92.5z m-181.6 4.3l-176.7 88.3h15.1l169-88.3h-7.4z" fill="#F6A2A3" />
  <path d="M314.2 250.1h3.2v-29.4l-3.3 1.8 0.1 27.6z" fill="#E58E8F" />
  <path d="M314.2 250.1h3.2v-29.4l-3.3 1.8 0.1 27.6z" fill="#E58E8F" />
  <path d="M314.2 250.1h3.2v-29.4l-3.3 1.8 0.1 27.6z" fill="#E58E8F" />
  <path d="M317.3 220.8l-172.2 88.3h9.7l159-81.8 3.5-6.5z" fill="#D88080" />
  <path d="M212.4 309.2h-9.3l104.1-58.5h10.7l-105.5 58.5z m37.2 0h-9.3l104.1-58.5h10.7l-105.5 58.5z m38.5 0h-9.3l104.1-58.5h10.7l-105.5 58.5z" fill="#DDDDDC" />
  <path d="M148.1 333.5h158.2v97.3H148.1z" fill="#F06668" />
  <path d="M161.3 345.7h132.1v73.1H161.3z" fill="#FFFFFF" />
  <path d="M175.3 532.2c0 17.3 9.3 33.4 24.4 42.1 15.1 8.7 33.6 8.7 48.7 0 15.1-8.7 24.4-24.8 24.3-42.1 0-17.3-9.3-33.4-24.3-42.1-15.1-8.7-33.6-8.7-48.7 0a48.47 48.47 0 0 0-24.4 42.1z" fill="#F06668" />
  <path d="M182.5 532.2c0 22.9 18.6 41.4 41.5 41.4s41.4-18.6 41.4-41.4c0-22.9-18.6-41.5-41.4-41.5-23 0.1-41.5 18.7-41.5 41.5z" fill="#F6A2A3" />
  <path d="M175.3 700c0 17.3 9.3 33.4 24.4 42.1 15.1 8.7 33.6 8.7 48.7 0 15.1-8.7 24.4-24.8 24.3-42.1 0-17.3-9.3-33.4-24.3-42.1-15.1-8.7-33.6-8.7-48.7 0-15.2 8.5-24.4 24.6-24.4 42.1z" fill="#F06668" />
  <path d="M182.5 700c0 22.9 18.6 41.4 41.5 41.4s41.4-18.6 41.4-41.4c0-22.9-18.6-41.5-41.4-41.5-23 0-41.5 18.6-41.5 41.5z" fill="#F6A2A3" />
  <path d="M555.2 131.3v-29.5h-7.5l-175.1 88.3h46.7l117.1-58.8h18.8z" fill="#357180" />
  <path d="M668.8 131.3H537.3l-117.8 59.1h138.9l110.4-59.1z" fill="#FFFFFF" />
  <path d="M728.8 97.5l-169.5 92.6V828l169.5-109.8V97.5z" fill="#357180" />
  <path d="M371.1 190.1h188.3V828H371.1V190.1z m358.2-92.6l-5.3 0.4-180 92.2 15.1-0.1 170.2-92.5z" fill="#67B8CB" />
  <path d="M547.9 101.8l-176.7 88.3h15.1l169-88.3h-7.4z" fill="#67B8CB" />
  <path d="M552.2 131.2h3.2v-29.4l-3.3 1.8 0.1 27.6z" fill="#E58E8F" />
  <path d="M552.2 131.2h3.2v-29.4l-3.3 1.8 0.1 27.6z" fill="#E58E8F" />
  <path d="M552.2 131.2h3.2v-29.4l-3.3 1.8 0.1 27.6z" fill="#67B7C3" />
  <path d="M555.4 101.8l-172.2 88.3h9.7l159-81.8 3.5-6.5z" fill="#43A0AA" />
  <path d="M450.3 190.1H441l104.1-58.5h10.7l-105.5 58.5z m37.3 0h-9.3l104.1-58.5h10.7l-105.5 58.5z m38.5 0h-9.3l104.1-58.5h10.7l-105.5 58.5z" fill="#DDDDDC" />
  <path d="M386.1 214.5h158.2v97.3H386.1z" fill="#357180" />
  <path d="M399.1 226.7h132.3v73.1H399.1z" fill="#FFFFFF" />
  <path d="M413.3 452.9c0 17.3 9.3 33.4 24.4 42.1 15.1 8.7 33.7 8.7 48.7 0 15.1-8.7 24.4-24.8 24.4-42.1s-9.3-33.4-24.4-42.1c-15.1-8.7-33.5-8.7-48.7 0-15.3 8.7-24.4 24.8-24.4 42.1z m0 205.6c0 17.3 9.3 33.4 24.4 42.1 15.1 8.7 33.7 8.7 48.7 0 15.1-8.7 24.4-24.8 24.4-42.1s-9.3-33.4-24.4-42.1c-15.1-8.7-33.5-8.7-48.7 0-15.3 8.6-24.4 24.7-24.4 42.1z" fill="#357180" />
  <path d="M940.5 727l-93.3 94.8-162.5 5.5 95-101.1 160.8 0.8z" />
  <path d="M716.3 292l-4.4-21.6-5.4 1.1-114.6 90.2 34.1-6.9 76.8-60.2 13.5-2.6z" fill="#2F8442" />
  <path d="M799.1 275.2l-95.8 19.4-77.2 60.4 101.3-20.5 71.7-59.3z" fill="#FFFFFF" />
  <path d="M837.9 241.7L728 334.3l94.3 465.2 107.4-105.1-91.8-452.7z" fill="#2F8442" />
  <path d="M728 334.1l94.3 465.2L685 827.2 590.7 362 728 334.1z m110.3-92.6l-3.7 1-117.7 93.8 11-2.4 110.4-92.4z m-131.8 30L590.6 362l10.9-2.2 110.2-89.4-5.2 1.1z" fill="#6CC077" />
  <path d="M713.9 292.3l2.4-0.4-4.3-21.5-2.2 1.8 4.1 20.1z" fill="#E58E8F" />
  <path d="M713.9 292.3l2.4-0.4-4.3-21.5-2.2 1.8 4.1 20.1z" fill="#E58E8F" />
  <path d="M713.9 292.3l2.4-0.4-4.3-21.5-2.2 1.8 4.1 20.1z" fill="#6CC077" />
  <path d="M711.9 270.4l-112.4 89.8 7.1-1.4 103.8-83 1.5-5.4z" fill="#48B15A" />
  <path d="M648.4 350.4l-6.8 1.4 67.4-58.1 7.8-1.5-68.4 58.2z m27.2-5.6l-6.8 1.4 67.2-58.1 7.8-1.5-68.2 58.2z m28.1-5.7l-6.8 1.4 67.2-57.9 7.8-1.5-68.2 58z" fill="#DDDDDC" />
  <path d="M735 425.2l-115.3 23.4-14.4-71 115.3-23.4 14.4 71z" fill="#2F8442" />
  <path d="M723.8 418.3l-96.3 19.5-10.8-53.2 96.3-19.5 10.8 53.2z" fill="#FFFFFF" />
  <path d="M659.5 540.3c0 12.9 6.9 25 18.2 31.3 11.2 6.5 24.9 6.5 36.2 0 11.2-6.5 18.2-18.4 18.2-31.3 0-12.9-6.9-24.9-18.2-31.3-11.2-6.5-25-6.5-36.2 0-11.3 6.5-18.2 18.4-18.2 31.3z m30.2 150c0 12.9 6.9 25 18.2 31.3 11.2 6.5 25 6.5 36.2 0 11.2-6.5 18.2-18.4 18.2-31.3 0-12.9-6.9-24.9-18.2-31.3-11.2-6.5-25-6.5-36.2 0-11.3 6.3-18.2 18.2-18.2 31.3z" fill="#2F8442" />
</svg>
